# xmcd CD database file
#
# Track frame offsets:
#	150
#	17753
#	35116
#	50926
#	69944
#	84763
#	102290
#	120648
#	134760
#	153139
#	171063
#	187597
#	201736
#	216213
#	236776
#	253155
#	266948
#	280527
#
# Disc length: 3988 seconds
#
# Revision: 2
# Processed by: cddbd v1.4b41PL1 Copyright (c) Steve Scherf et al.
# Submitted via: Feurio! 1.52 - http://www.feurio.com
#
DISCID=0a0f9212
DTITLE=Westtlife - Coast To Coast
DYEAR=1900
DGENRE=
TTITLE0=My Love
TTITLE1=What Makes A Man
TTITLE2=I Lay My Love On You
TTITLE3=I Have A Dream (remix)
TTITLE4=Against All Odds (featering MARIAH CARY)
TTITLE5=When You're Looking Like That
TTITLE6=Close
TTITLE7=Someboddy Needs You
TTITLE8=Angel's Wings
TTITLE9=Soledad
TTITLE10=Puzzle Of My Heart
TTITLE11=Dreams Come True
TTITLE12=No Place That Far
TTITLE13=Close Your Eyes
TTITLE14=You Make Me Feel
TTITLE15=Loneliness Knows Me By Name
TTITLE16=Fragile Heart
TTITLE17=Every Little Thing You Do
EXTD=
EXTT0=
EXTT1=
EXTT2=
EXTT3=
EXTT4=
EXTT5=
EXTT6=
EXTT7=
EXTT8=
EXTT9=
EXTT10=
EXTT11=
EXTT12=
EXTT13=
EXTT14=
EXTT15=
EXTT16=
EXTT17=
PLAYORDER=
